<svg width="67" height="67" viewBox="0 0 67 67" fill="none" xmlns="http://www.w3.org/2000/svg">
<ellipse cx="33.6726" cy="33.5" rx="33.2488" ry="33.5" fill="#08F0D5"/>
<path d="M43.3573 21.99C43.0517 20.8765 42.5577 19.8246 41.8971 18.8807C42.6628 18.5903 43.4746 18.4425 44.2931 18.4446H44.2932C45.9826 18.4447 47.6119 19.0764 48.8656 20.2174C50.1194 21.3583 50.9085 22.9275 51.0799 24.6211C51.2514 26.3147 50.7931 28.0121 49.7938 29.3847C48.7945 30.7573 47.3253 31.7074 45.6707 32.0512C45.5374 32.0787 45.4155 32.1462 45.321 32.2447C45.2265 32.3433 45.1639 32.4682 45.1411 32.6032L45.1411 32.6033L43.0983 44.7791H39.3956L39.9686 36.6955C39.9686 36.6955 39.9687 36.6955 39.9687 36.6955C39.9691 36.6899 39.9694 36.6844 39.9697 36.6788C39.9702 36.6683 39.9704 36.6578 39.9704 36.6471L39.9704 36.6465C39.9682 36.4721 39.8994 36.3053 39.7784 36.1805C39.6573 36.0557 39.4931 35.9825 39.3198 35.9763C39.1465 35.9701 38.9776 36.0313 38.848 36.1471C38.7184 36.2629 38.638 36.4244 38.6235 36.5982L38.6234 36.5988L38.0428 44.7791H34.3482V37.9058C34.3482 37.7258 34.2772 37.553 34.1507 37.4256C34.0242 37.2981 33.8526 37.2264 33.6735 37.2264C33.4945 37.2264 33.3228 37.2981 33.1963 37.4256C33.0698 37.553 32.9988 37.7258 32.9988 37.9058V44.7791H29.3043L28.7242 36.5987L28.7242 36.598C28.7096 36.4241 28.6286 36.2626 28.4991 36.1469C28.3694 36.0311 28.2005 35.9699 28.0272 35.9762C27.8539 35.9824 27.6897 36.0556 27.5686 36.1804C27.4476 36.3052 27.3789 36.472 27.3766 36.6464V36.647C27.3766 36.6631 27.3778 36.6787 27.3788 36.6922L27.379 36.6953L27.379 36.6955L27.9514 44.7791H24.2487L22.2059 32.6035L22.2059 32.6035C22.1832 32.4685 22.1205 32.3435 22.026 32.245C21.9315 32.1465 21.8096 32.079 21.6763 32.0514C20.4126 31.7891 19.2486 31.171 18.3195 30.269C17.3903 29.3669 16.734 28.2178 16.4269 26.955C16.1198 25.6922 16.1743 24.3676 16.5843 23.1348C16.9943 21.902 17.7428 20.8117 18.743 19.9903C19.7432 19.169 20.954 18.6503 22.2349 18.4944C23.5158 18.3385 24.8144 18.5518 25.9799 19.1095C27.1454 19.6672 28.13 20.5465 28.8196 21.6454C29.5091 22.7444 29.8752 24.0178 29.8754 25.318C29.8754 25.498 29.9464 25.6708 30.0729 25.7982C30.1994 25.9257 30.371 25.9974 30.5501 25.9974C30.7291 25.9974 30.9008 25.9257 31.0273 25.7982C31.1538 25.6708 31.2248 25.498 31.2248 25.318C31.2242 23.9481 30.8844 22.6 30.236 21.3959C29.5974 20.2099 28.6793 19.2005 27.5628 18.4562C28.6301 17.3938 29.9522 16.6274 31.4009 16.232C32.8691 15.8312 34.416 15.8254 35.8871 16.2153C37.3582 16.6051 38.7022 17.3769 39.7848 18.4536C40.8673 19.5303 41.6506 20.8742 42.0566 22.3513C42.0792 22.4382 42.1186 22.5198 42.1727 22.5912C42.2269 22.6628 42.2947 22.7228 42.3721 22.7678C42.4496 22.8128 42.5352 22.8419 42.6239 22.8533C42.7126 22.8647 42.8027 22.8582 42.8889 22.8342C42.9751 22.8103 43.0557 22.7693 43.126 22.7137C43.1963 22.6581 43.2549 22.589 43.2984 22.5104C43.342 22.4318 43.3696 22.3454 43.3797 22.256C43.3897 22.1667 43.3821 22.0763 43.3573 21.99ZM43.3573 21.99C43.3573 21.9901 43.3573 21.9902 43.3573 21.9903L43.3091 22.0036L43.3572 21.9897C43.3572 21.9898 43.3572 21.9899 43.3573 21.99ZM44.2933 17.0858H44.2932C43.1621 17.0865 42.0434 17.3227 41.0074 17.7795C40.0726 16.7707 38.9427 15.9653 37.687 15.4129C36.4205 14.8558 35.0533 14.5682 33.6713 14.5682C32.2893 14.5682 30.9221 14.8558 29.6556 15.4129C28.3999 15.9653 27.27 16.7707 26.3352 17.7795C25.3128 17.3281 24.2094 17.0924 23.0929 17.0872C21.9644 17.0819 20.8471 17.3122 19.8114 17.7635C18.7757 18.2148 17.8439 18.8773 17.0749 19.7093C16.3059 20.5412 15.7163 21.5247 15.3432 22.5975C14.9701 23.6704 14.8216 24.8095 14.9071 25.943C14.9925 27.0766 15.31 28.18 15.8396 29.1838C16.3693 30.1876 17.0995 31.0701 17.9844 31.7756C18.8609 32.4743 19.8702 32.9844 20.95 33.2744L23.0038 45.5156V51.7525C23.0038 51.9325 23.0748 52.1053 23.2013 52.2327C23.3278 52.3602 23.4994 52.4319 23.6785 52.4319H43.6686C43.8476 52.4319 44.0193 52.3602 44.1458 52.2327C44.2723 52.1053 44.3432 51.9325 44.3432 51.7525V45.5156L46.3971 33.2744C48.3052 32.7619 49.9649 31.5705 51.0688 29.9201C52.1787 28.2607 52.6508 26.2509 52.3969 24.2664C52.143 22.2819 51.1804 20.4584 49.689 19.1369C48.1976 17.8153 46.2795 17.0862 44.2933 17.0858ZM42.9939 51.0731H24.3532V46.1379H42.9939V51.0731Z" fill="#08665B" stroke="#08665B" stroke-width="0.1"/>
</svg>
