<svg width="68" height="67" viewBox="0 0 68 67" fill="none" xmlns="http://www.w3.org/2000/svg">
<circle cx="34.1064" cy="33.5" r="33.5" fill="#08F0D5"/>
<g clip-path="url(#clip0)">
<path d="M52.3583 38.5361H15.8559C15.5085 38.5361 15.2266 38.8174 15.2266 39.1655C15.2266 46.4528 21.1551 52.3819 28.4429 52.3819H39.7713C47.0585 52.3819 52.9876 46.4528 52.9876 39.1655C52.9876 38.8174 52.7063 38.5361 52.3583 38.5361ZM39.7713 51.1231H28.4429C22.0607 51.1231 16.8301 46.0971 16.5016 39.7948H51.7125C51.3841 46.0971 46.1535 51.1231 39.7713 51.1231Z" fill="#08665B"/>
<path d="M47.3247 23.4355C47.3247 23.3896 47.3241 23.3436 47.3197 23.2738C47.2228 22.2304 46.5054 21.3731 45.5582 21.0516L46.2706 20.3391C47.506 19.1289 47.63 17.193 46.5487 15.8261C45.3908 14.4189 43.3038 14.2187 41.8972 15.3761C41.8172 15.4422 41.7399 15.512 41.6624 15.5895L40.8883 16.3749C40.5636 15.4328 39.7045 14.7203 38.646 14.6222C37.252 14.5461 36.0719 15.6159 35.9971 17.0017C35.9946 17.0477 35.9939 17.0936 35.9939 17.1389V18.1037C35.6239 17.8891 35.1953 17.7658 34.7377 17.7651C34.6925 17.7651 34.6458 17.7664 34.576 17.7701C33.2304 17.8954 32.1952 19.0515 32.2178 20.392V21.2479C31.8402 21.0295 31.4098 20.9125 30.9617 20.9118C30.9164 20.9118 30.8704 20.9131 30.8006 20.9168C29.4544 21.0421 28.4191 22.1982 28.4418 23.5387V32.872C28.4418 33.2201 28.7237 33.5014 29.0711 33.5014H39.7701C41.1584 33.5014 42.2875 32.3723 42.2868 30.9852C42.2868 30.5271 42.1641 30.0972 41.9489 29.7266H42.7992C44.151 29.7637 45.3071 28.7133 45.4336 27.3432C45.4607 26.8309 45.3323 26.3463 45.0894 25.9347C45.6545 25.8718 46.1775 25.6219 46.5853 25.2154C47.061 24.7408 47.3241 24.1089 47.3247 23.4355ZM45.6966 24.3242C45.4587 24.5608 45.1434 24.6911 44.8067 24.6911C44.806 24.6911 44.8054 24.6911 44.8048 24.6911H42.9167C42.5687 24.6911 42.2874 24.9731 42.2874 25.3205C42.2874 25.6679 42.5687 25.9498 42.9167 25.9498L42.986 25.9518C43.6795 25.9889 44.2132 26.583 44.178 27.2514C44.1138 27.9449 43.5254 28.4818 42.8098 28.4672H39.77C39.422 28.4672 39.1407 28.7492 39.1407 29.0966C39.1407 29.444 39.422 29.726 39.77 29.726C40.4642 29.726 41.0288 30.2905 41.0288 30.9847C41.0288 31.6789 40.4642 32.2435 39.77 32.2435H29.7004V23.528C29.6884 22.8313 30.2234 22.2354 30.8923 22.1724L30.9609 22.1705C31.6539 22.171 32.2171 22.735 32.2178 23.4273V23.4317C32.2178 23.7791 32.4991 24.0611 32.8465 24.0611C32.8471 24.0611 32.8471 24.0611 32.8471 24.0611C33.1945 24.0611 33.4758 23.7798 33.4765 23.4324V23.4318V20.3813C33.4645 19.6846 33.9995 19.0886 34.6685 19.0256L34.7365 19.0237C35.43 19.0249 35.9933 19.5888 35.994 20.2818V20.2855C35.994 20.6329 36.2753 20.9149 36.6227 20.9149C36.6233 20.9149 36.6233 20.9149 36.6233 20.9149C36.9707 20.9149 37.252 20.6336 37.2527 20.2862V20.2855V17.1388L37.2546 17.069C37.2911 16.376 37.8714 15.8424 38.5536 15.877C39.2484 15.9418 39.7827 16.5378 39.7695 17.2464V17.7688C39.7695 18.0237 39.9237 18.254 40.1604 18.351C40.3951 18.4479 40.6682 18.3925 40.847 18.21L42.5544 16.4774C42.6009 16.4314 42.6488 16.388 42.6985 16.3471C43.5695 15.6309 44.8603 15.7555 45.5702 16.6165C46.2424 17.4673 46.1649 18.6807 45.3858 19.4442L43.7306 21.0994C43.5507 21.2793 43.4965 21.5499 43.594 21.7854C43.691 22.0201 43.9213 22.1737 44.1755 22.1737H44.6979C44.7111 22.1737 44.7205 22.1737 44.7312 22.1737C45.4185 22.1737 46.0025 22.7036 46.0642 23.3657L46.0661 23.435C46.0653 23.771 45.9345 24.0869 45.6966 24.3242Z" fill="#08665B"/>
<path d="M42.4721 18.58L24.8506 36.2015L25.7406 37.0915L43.3621 19.47L42.4721 18.58Z" fill="#08665B"/>
<path d="M39.7695 19.6594H38.5107V22.8061H39.7695V19.6594Z" fill="#08665B"/>
<path d="M35.9931 22.8061H34.7344V26.5822H35.9931V22.8061Z" fill="#08665B"/>
<path d="M32.2177 25.9466H30.959V30.352H32.2177V25.9466Z" fill="#08665B"/>
<path d="M42.2864 22.1768H39.1396V23.4354H42.2864V22.1768Z" fill="#08665B"/>
<path d="M39.1394 25.9466H35.3633V27.2053H39.1394V25.9466Z" fill="#08665B"/>
<path d="M35.9933 29.7227H31.5879V30.9815H35.9933V29.7227Z" fill="#08665B"/>
<path d="M26.9727 17.5296C26.9721 17.5284 26.9708 17.5271 26.9702 17.5259C26.0822 16.196 24.2772 15.8348 22.948 16.7228C22.9065 16.7499 22.8655 16.7788 22.819 16.8135L22.5924 16.9859L22.3747 16.8292C21.223 15.7549 19.4123 15.7984 18.316 16.9362C17.7792 17.4925 17.4909 18.2251 17.5054 18.9986C17.5199 19.7721 17.8339 20.4933 18.3897 21.0295C18.5514 21.1856 18.7314 21.3228 18.9252 21.4373L19.4552 21.8514V22.1737C19.4552 23.9088 20.8668 25.3205 22.6019 25.3205C24.3371 25.3205 25.7487 23.9082 25.748 22.1731V21.8508L26.3051 21.416C27.5102 20.5015 27.8028 18.7941 26.9727 17.5296ZM25.5372 20.419L24.7316 21.0484C24.5793 21.1673 24.4899 21.3505 24.4899 21.5443V22.1737C24.4899 23.2146 23.6428 24.0617 22.6019 24.0617C21.5609 24.0617 20.7138 23.2146 20.7138 22.1737V21.5443C20.7138 21.3505 20.6251 21.1673 20.4721 21.0484L19.6666 20.419C19.6427 20.4001 19.6168 20.3832 19.5904 20.368C19.4721 20.3007 19.3626 20.2189 19.2644 20.1238C18.9498 19.8205 18.7723 19.4127 18.7641 18.9759C18.7559 18.5391 18.9189 18.125 19.2222 17.8103C19.5426 17.478 19.9712 17.3106 20.4004 17.3106C20.8094 17.3106 21.2191 17.4622 21.5364 17.7688C21.5578 17.7889 21.5804 17.8085 21.605 17.826L22.2343 18.2792C22.4584 18.4409 22.7624 18.4372 22.9827 18.2697L23.646 17.7707C24.0111 17.5265 24.4484 17.4409 24.879 17.5259C25.3082 17.6114 25.6789 17.8588 25.9224 18.2226C26.3894 18.9363 26.2232 19.8979 25.5372 20.419Z" fill="#08665B"/>
<path d="M30.3291 15.2476H29.0703V16.5063H30.3291V15.2476Z" fill="#08665B"/>
<path d="M34.1053 35.3868H32.8467V36.6455H34.1053V35.3868Z" fill="#08665B"/>
<path d="M49.2109 18.3975V19.6563C49.9051 19.6563 50.4697 20.2208 50.4697 20.9149C50.4697 21.609 49.9051 22.1737 49.2109 22.1737V23.4323C50.5993 23.4323 51.7283 22.3032 51.7283 20.9149C51.7283 19.5266 50.5993 18.3975 49.2109 18.3975Z" fill="#08665B"/>
<path d="M17.7421 24.0648H16.4834V25.3235H17.7421V24.0648Z" fill="#08665B"/>
<path d="M16.4852 21.5474H15.2266V22.8062H16.4852V21.5474Z" fill="#08665B"/>
<path d="M39.7703 34.76C38.382 34.76 37.2529 35.8891 37.2529 37.2774H38.5117C38.5117 36.5832 39.0762 36.0187 39.7703 36.0187C40.4645 36.0187 41.0291 36.5832 41.0291 37.2774H42.2877C42.2877 35.8891 41.1587 34.76 39.7703 34.76Z" fill="#08665B"/>
<path d="M22.7788 29.0959H22.6995C22.4188 28.0115 21.4325 27.2078 20.2614 27.2078C19.0902 27.2078 18.1033 28.0115 17.8232 29.0959H17.744C16.3556 29.0959 15.2266 30.2249 15.2266 31.6133C15.2266 33.0016 16.3556 34.1306 17.744 34.1306H22.7788C24.1671 34.1306 25.2962 33.0016 25.2962 31.6133C25.2962 30.2249 24.1671 29.0959 22.7788 29.0959ZM22.7788 32.8726H17.7439C17.0497 32.8726 16.4852 32.308 16.4852 31.6139C16.4852 30.9197 17.0497 30.3552 17.7439 30.3552H18.3733C18.7207 30.3552 19.0026 30.0732 19.0026 29.7258C19.0026 29.0316 19.5672 28.4672 20.2614 28.4672C20.9556 28.4672 21.5201 29.0317 21.5201 29.7258C21.5201 30.0732 21.8021 30.3552 22.1495 30.3552H22.7788C23.473 30.3552 24.0376 30.9197 24.0376 31.6139C24.0374 32.3081 23.4729 32.8726 22.7788 32.8726Z" fill="#08665B"/>
<path d="M21.5198 32.8719H19.0024C18.655 32.8719 18.373 33.1539 18.373 33.5013V36.0187C18.373 36.3668 18.655 36.6481 19.0024 36.6481H21.5198C21.8672 36.6481 22.1492 36.3668 22.1492 36.0187V33.5013C22.1492 33.1539 21.8672 32.8719 21.5198 32.8719ZM20.8904 35.3893H19.6318V34.1307H20.8905V35.3893H20.8904Z" fill="#08665B"/>
<path d="M48.5814 30.9839C47.5405 30.9839 46.6934 31.831 46.6934 32.872C46.6934 33.9129 47.5405 34.76 48.5814 34.76C49.6223 34.76 50.4694 33.9129 50.4694 32.872C50.4694 31.831 49.6223 30.9839 48.5814 30.9839ZM48.5814 33.5019C48.234 33.5019 47.952 33.2194 47.952 32.8726C47.952 32.5258 48.234 32.2432 48.5814 32.2432C48.9288 32.2432 49.2108 32.5252 49.2108 32.8726C49.2108 33.22 48.9288 33.5019 48.5814 33.5019Z" fill="#08665B"/>
<path d="M48.5812 28.4665C46.1525 28.4665 44.1758 30.4427 44.1758 32.8719C44.1758 35.3012 46.1525 37.2773 48.5812 37.2773C51.0099 37.2773 52.9866 35.3012 52.9866 32.8719C52.9866 30.4427 51.0099 28.4665 48.5812 28.4665ZM48.5812 36.0193C46.8461 36.0193 45.4344 34.6071 45.4344 32.8725C45.4344 31.1374 46.8461 29.7257 48.5812 29.7257C50.3163 29.7257 51.728 31.1374 51.728 32.8725C51.728 34.6076 50.3163 36.0193 48.5812 36.0193Z" fill="#08665B"/>
</g>
<defs>
<clipPath id="clip0">
<rect width="37.7636" height="37.7636" fill="white" transform="translate(15.2246 14.6182)"/>
</clipPath>
</defs>
</svg>
