<svg width="68" height="67" viewBox="0 0 68 67" fill="none" xmlns="http://www.w3.org/2000/svg">
<circle cx="34.3486" cy="33.5" r="33.5" fill="#08F0D5"/>
<g clip-path="url(#clip0)">
<path d="M34.9935 19.7231C28.4417 19.7231 23.0889 25.0759 23.0889 31.6277C23.0889 35.0535 24.5876 38.3508 27.1142 40.5775C28.9983 42.4617 28.8271 46.487 28.7842 46.5299C28.7842 46.744 28.8271 46.9152 28.9983 47.0865C29.1268 47.215 29.3409 47.3006 29.5122 47.3006H40.4319C40.646 47.3006 40.8173 47.215 40.9458 47.0865C41.0742 46.9581 41.1599 46.744 41.1599 46.5299C41.1599 46.487 40.9458 42.4617 42.83 40.5775C42.8728 40.5347 42.9156 40.4919 42.9584 40.4491C45.4421 38.1795 46.8981 34.9678 46.8981 31.6277C46.8981 25.0759 41.5453 19.7231 34.9935 19.7231ZM41.845 39.4642C41.8022 39.507 41.7166 39.5926 41.7166 39.6355C40.0465 41.434 39.7467 44.3887 39.7039 45.8019H30.2402C30.1974 44.3887 29.8976 41.3055 28.0991 39.4642C25.8295 37.4943 24.502 34.6252 24.502 31.5849C24.502 25.8039 29.1696 21.1362 34.9506 21.1362C40.7317 21.1362 45.3993 25.8039 45.3993 31.5849C45.3993 34.6252 44.1146 37.4943 41.845 39.4642Z" fill="#08665B"/>
<path d="M34.9506 22.7634C34.5652 22.7634 34.2227 23.1059 34.2227 23.4913C34.2227 23.8767 34.5652 24.2193 34.9506 24.2193C39.2757 24.2193 42.7443 27.7308 42.7443 32.013C42.7443 32.3984 43.0869 32.741 43.4723 32.741C43.8577 32.741 44.2003 32.3984 44.2003 32.013C44.2431 26.9171 40.0893 22.7634 34.9506 22.7634Z" fill="#08665B"/>
<path d="M39.7035 48.1142H30.197C29.2121 48.1142 28.3984 48.9278 28.3984 49.9127C28.3984 50.8977 29.2121 51.7113 30.197 51.7113H39.6607C40.6884 51.6685 41.5021 50.8977 41.5021 49.9127C41.5021 48.9278 40.6884 48.1142 39.7035 48.1142ZM39.7035 50.2125H30.197C30.0257 50.2125 29.8544 50.084 29.8544 49.8699C29.8544 49.6558 29.9829 49.5273 30.197 49.5273H39.6607C39.832 49.5273 40.0033 49.6558 40.0033 49.8699C40.0033 50.084 39.8748 50.2125 39.7035 50.2125Z" fill="#08665B"/>
<path d="M38.2903 52.4393H31.6101C30.6251 52.4393 29.8115 53.2529 29.8115 54.2378C29.8115 55.2227 30.6251 56.0363 31.6101 56.0363H38.2903C39.2753 56.0363 40.0889 55.2227 40.0889 54.2378C40.0889 53.2101 39.2753 52.4393 38.2903 52.4393ZM38.2903 54.5376H31.6101C31.4388 54.5376 31.2675 54.4091 31.2675 54.195C31.2675 53.9809 31.3959 53.8524 31.6101 53.8524H38.2903C38.4616 53.8524 38.6329 53.9809 38.6329 54.195C38.6329 54.4091 38.4616 54.5376 38.2903 54.5376Z" fill="#08665B"/>
<path d="M34.9506 16.1688C35.3789 16.1688 35.6786 15.8262 35.6786 15.4408V10.4734C35.6786 10.088 35.336 9.74542 34.9506 9.74542C34.5652 9.74542 34.2227 10.088 34.2227 10.4734V15.4408C34.2227 15.8262 34.5652 16.1688 34.9506 16.1688Z" fill="#08665B"/>
<path d="M47.0693 13.4282C46.7267 13.1712 46.2985 13.2997 46.0844 13.5995L43.3437 17.7104C43.0868 18.053 43.1724 18.524 43.515 18.7381C43.6435 18.8238 43.772 18.8666 43.9004 18.8666C44.1574 18.8666 44.3715 18.7381 44.4999 18.524L47.2406 14.4131C47.4975 14.1133 47.4119 13.6423 47.0693 13.4282Z" fill="#08665B"/>
<path d="M26.2578 18.6953C26.3863 18.6953 26.5147 18.6525 26.6432 18.5668C26.9858 18.3527 27.0714 17.8817 26.8573 17.5391L24.2023 13.3853C23.9882 13.0428 23.5172 12.9571 23.1746 13.1712C22.832 13.3853 22.7464 13.8564 22.9605 14.199L25.6155 18.3527C25.7868 18.6097 26.0009 18.6953 26.2578 18.6953Z" fill="#08665B"/>
<path d="M21.0762 23.2344L16.7511 20.8792C16.4086 20.7079 15.9375 20.8364 15.7662 21.1789C15.5521 21.5215 15.6806 21.9926 16.066 22.1639L20.391 24.5191C20.5195 24.5619 20.6052 24.6047 20.7336 24.6047C20.9906 24.6047 21.2475 24.4763 21.376 24.2193C21.5472 23.8768 21.4188 23.4057 21.0762 23.2344Z" fill="#08665B"/>
<path d="M54.1773 21.1789C54.006 20.8364 53.535 20.7079 53.1924 20.8792L48.8245 23.2344C48.4819 23.4057 48.3535 23.8768 48.5248 24.2193C48.6532 24.4763 48.9102 24.6047 49.1671 24.6047C49.2956 24.6047 49.424 24.5619 49.5097 24.5191L53.8775 22.1639C54.2201 21.9926 54.3486 21.5215 54.1773 21.1789Z" fill="#08665B"/>
</g>
<defs>
<clipPath id="clip0">
<rect width="46.2909" height="46.2909" fill="white" transform="translate(11.8125 9.74542)"/>
</clipPath>
</defs>
</svg>
