<svg width="68" height="67" viewBox="0 0 68 67" fill="none" xmlns="http://www.w3.org/2000/svg">
<circle cx="33.7422" cy="33.5" r="33.5" fill="#08F0D5"/>
<g clip-path="url(#clip0)">
<path d="M47.608 34.7169C47.2654 34.7169 46.9876 34.9947 46.9876 35.3373C46.9876 35.7718 46.6342 36.1252 46.1997 36.1252C45.7654 36.1252 45.4119 35.7718 45.4119 35.3373C45.4119 34.9946 45.134 34.7169 44.7914 34.7169C44.4487 34.7169 44.1709 34.9947 44.1709 35.3373C44.1709 36.456 45.0811 37.3661 46.1997 37.3661C47.3183 37.3661 48.2285 36.456 48.2285 35.3373C48.2285 34.9945 47.9507 34.7169 47.608 34.7169Z" fill="#08665B"/>
<path d="M53.4317 34.8182L51.6853 34.2588C51.4616 34.1871 51.2853 34.0085 51.2138 33.7811C50.8457 32.6108 50.2902 31.5122 49.5628 30.5156C49.2313 30.0613 48.8627 29.6275 48.46 29.2146C48.7176 28.0843 48.8577 26.8051 48.8395 25.7C48.8135 24.119 48.4976 23.1918 47.8737 22.865C47.5377 22.6888 46.5151 22.1535 40.9801 24.6872C40.849 24.7472 40.7266 24.821 40.6133 24.9057C40.2401 24.8054 39.8587 24.7126 39.475 24.6293C39.4288 24.6193 39.3812 24.6104 39.3346 24.6005C39.7831 23.6207 40.045 22.5566 40.0942 21.458C40.1096 21.1156 39.8445 20.8256 39.5021 20.8104C39.1606 20.7934 38.8697 21.0601 38.8545 21.4025C38.7736 23.2088 38.0243 24.9083 36.7447 26.188C35.9802 26.9525 35.085 27.5079 34.1309 27.8576C32.4763 27.6255 30.791 27.6255 29.1365 27.8576C28.1823 27.5079 27.2872 26.9525 26.5226 26.188C25.1574 24.8228 24.4056 23.0077 24.4056 21.077C24.4056 19.1462 25.1574 17.3311 26.5226 15.9659C27.8878 14.6006 29.703 13.8488 31.6337 13.8488C33.5643 13.8488 35.3795 14.6006 36.7447 15.9659C37.2933 16.5145 37.7467 17.1406 38.0922 17.8265C38.2463 18.1326 38.6195 18.2559 38.9255 18.1017C39.2316 17.9476 39.3548 17.5744 39.2006 17.2684C38.7957 16.4641 38.2646 15.7307 37.6223 15.0883C36.0227 13.4887 33.8959 12.6077 31.6338 12.6077C29.3716 12.6077 27.2448 13.4887 25.6452 15.0883C24.0456 16.688 23.1646 18.8147 23.1646 21.0769C23.1646 23.339 24.0456 25.4658 25.6452 27.0654C26.1066 27.5269 26.6086 27.9237 27.1395 28.2561C27.1397 28.2561 27.1399 28.256 27.14 28.256C26.7542 28.3563 26.3713 28.4689 25.9927 28.5954C25.6677 28.7041 25.4923 29.0556 25.601 29.3807C25.7096 29.7057 26.0612 29.8811 26.3862 29.7725C29.7701 28.6412 33.4974 28.6412 36.8814 29.7725C36.9466 29.7943 37.0129 29.8047 37.0781 29.8047C37.3377 29.8047 37.5797 29.6405 37.6666 29.3807C37.7752 29.0557 37.5999 28.7041 37.2748 28.5954C36.8962 28.4689 36.5133 28.3562 36.1275 28.256C36.1276 28.256 36.1278 28.2561 36.128 28.2561C36.659 27.9237 37.1609 27.5269 37.6223 27.0654C38.0305 26.6572 38.3909 26.2115 38.7037 25.7377C38.8748 25.771 39.0446 25.8058 39.2119 25.8421C39.4347 25.8904 39.6566 25.9424 39.8764 25.997C39.8695 26.0239 39.8624 26.0508 39.8567 26.0782C39.554 27.5143 39.5737 28.7844 39.915 29.853C40.2218 30.8136 40.7755 31.5918 41.5605 32.1662C42.4858 32.843 43.6028 33.1354 44.6147 33.1354C45.3762 33.1354 46.0783 32.9697 46.594 32.6776C47.1772 32.3473 47.6659 31.6512 48.0527 30.6061C48.2315 30.8148 48.4009 31.0285 48.5606 31.2474C49.2083 32.1346 49.7027 33.1124 50.0301 34.1535C50.2224 34.765 50.6997 35.2461 51.3069 35.4407L53.0533 36.0002C53.5115 36.147 53.8194 36.5688 53.8194 37.0499V39.9458C53.8194 40.427 53.5115 40.8487 53.0533 40.9955L50.2395 41.8968C49.7894 42.0411 49.4084 42.3505 49.1668 42.768C48.0613 44.6785 46.3233 46.2595 44.0007 47.467C43.7324 47.6067 43.5465 47.8564 43.4906 48.1524L42.5894 52.9242C42.5645 53.0557 42.4493 53.1511 42.3155 53.1511H39.3853C39.2515 53.1511 39.1363 53.0556 39.1114 52.9242L38.6123 50.287C38.514 49.7681 38.0274 49.4235 37.5036 49.5028C36.2414 49.6937 34.9408 49.7904 33.6382 49.7904C32.669 49.7904 31.7123 49.7363 30.7944 49.6297C30.2868 49.5713 29.814 49.9173 29.7191 50.4184L29.2448 52.9242C29.2199 53.0557 29.1047 53.1511 28.9709 53.1511H26.0407C25.9069 53.1511 25.7917 53.0556 25.7665 52.9222L24.8988 48.4153C24.8429 48.1249 24.6605 47.878 24.3982 47.7378C20.439 45.6243 18.3463 42.0931 18.3463 37.5263C18.3463 35.219 18.8511 33.1787 19.8466 31.4619C20.7756 29.8598 22.1325 28.5352 23.8795 27.5246C24.1761 27.353 24.2775 26.9734 24.1059 26.6767C23.9344 26.3801 23.5548 26.2789 23.2581 26.4503C19.8706 28.4099 17.8275 31.4331 17.265 35.2729V35.2728C17.2053 35.2674 17.1455 35.2622 17.0859 35.256C17.0968 34.8418 17.0218 34.4237 16.8586 34.018C16.4986 33.1231 15.7591 32.4773 14.9746 32.3726C14.3564 32.2898 13.768 32.5523 13.3597 33.0917C12.7678 33.874 12.8643 34.4931 13.0494 34.8746C13.3619 35.5186 14.1653 35.9741 15.4984 36.2605C15.4618 36.3154 15.4214 36.3705 15.3773 36.4259C14.5896 37.4138 13.6616 37.6322 13.059 37.6528C12.7063 37.6647 12.4238 37.9479 12.4238 38.3009V38.3039C12.4238 38.652 12.6985 38.936 13.0464 38.9519C13.0909 38.954 13.1375 38.9551 13.186 38.9551C13.9484 38.9551 15.1721 38.6739 16.3478 37.1997C16.5334 36.967 16.6846 36.7215 16.8009 36.4679C16.918 36.4811 17.0305 36.4924 17.1382 36.5024C17.1382 36.5022 17.1382 36.502 17.1383 36.5017C17.1172 36.838 17.1054 37.1792 17.1054 37.5263C17.1054 40.1102 17.7214 42.414 18.9361 44.374C20.0562 46.181 21.6598 47.6606 23.704 48.7734L24.5475 53.1549C24.6832 53.8717 25.3112 54.392 26.0407 54.392H28.9709C29.7005 54.392 30.3284 53.8717 30.4641 53.1549L30.893 50.8892C31.7837 50.9835 32.7058 51.0313 33.6381 51.0313C34.9172 51.0313 36.1948 50.9422 37.4399 50.7664L37.892 53.1551C38.0277 53.8719 38.6557 54.3921 39.3852 54.3921H42.3153C43.0449 54.3921 43.6729 53.8718 43.8086 53.1547L44.6861 48.5088C47.165 47.198 49.0335 45.476 50.2408 43.3895C50.3278 43.2391 50.4618 43.1288 50.618 43.0787L53.4317 42.1775C54.4057 41.8653 55.0602 40.9685 55.0602 39.9456V37.0498C55.0602 36.027 54.4057 35.1302 53.4317 34.8182ZM47.5054 27.4437C47.2666 29.4861 46.6259 31.2332 45.9822 31.5977C45.2506 32.0122 43.5614 32.0922 42.2931 31.1645C41.0233 30.2356 40.6007 28.5653 41.0708 26.3341C41.0708 26.334 41.0708 26.334 41.0708 26.334C41.118 26.1099 41.2772 25.916 41.4967 25.8156C44.6031 24.3936 46.3941 23.9285 47.0595 23.9285C47.1599 23.9285 47.2347 23.9391 47.2845 23.9586C47.4843 24.1716 47.7465 25.3825 47.5054 27.4437ZM14.166 34.3328C14.1018 34.2004 14.2534 33.9676 14.3495 33.8405C14.5018 33.6394 14.6421 33.5982 14.7481 33.5982C14.7705 33.5982 14.7914 33.6001 14.8105 33.6026C15.0958 33.6407 15.4956 33.9546 15.7073 34.481C15.7572 34.6049 15.822 34.8102 15.8372 35.0662C14.9782 34.8882 14.3108 34.6317 14.166 34.3328Z" fill="#08665B"/>
<path d="M32.2361 20.3657V18.1453C33.0018 18.2 33.2863 18.55 33.5488 18.55C33.8769 18.55 34.0301 18.1344 34.0301 17.9266C34.0301 17.3905 32.9799 17.1608 32.2361 17.1389V16.8435C32.2361 16.7123 32.072 16.5919 31.9079 16.5919C31.7219 16.5919 31.5906 16.7123 31.5906 16.8435V17.1607C30.5515 17.2701 29.5123 17.817 29.5123 19.1953C29.5123 20.5955 30.6062 20.9893 31.5906 21.3393V23.9099C30.4749 23.8224 30.1796 23.0567 29.8186 23.0567C29.5451 23.0567 29.3154 23.4177 29.3154 23.6802C29.3154 24.2162 30.2343 24.9491 31.5906 24.971V25.3101C31.5906 25.4413 31.722 25.5616 31.9079 25.5616C32.0721 25.5616 32.2361 25.4413 32.2361 25.3101V24.9382C33.4175 24.774 34.2269 24.0302 34.2269 22.6848C34.2269 21.1971 33.1878 20.7157 32.2361 20.3657ZM31.6563 20.158C31.0765 19.9392 30.6062 19.7095 30.6062 19.0861C30.6062 18.5172 31.0437 18.2437 31.6563 18.1672V20.158V20.158ZM32.1704 23.888V21.58C32.7064 21.8096 33.133 22.1159 33.133 22.805C33.133 23.4286 32.7611 23.7786 32.1704 23.888Z" fill="#08665B"/>
</g>
<defs>
<clipPath id="clip0">
<rect width="42.6364" height="42.6364" fill="white" transform="translate(12.4238 12.1818)"/>
</clipPath>
</defs>
</svg>
