<svg width="67" height="67" viewBox="0 0 67 67" fill="none" xmlns="http://www.w3.org/2000/svg">
<circle cx="33.5" cy="33.5" r="33.5" fill="#08F0D5"/>
<g clip-path="url(#clip0)">
<path d="M43.157 39.6588C43.157 38.7373 42.7262 37.9163 42.0504 37.3893C42.7262 36.8623 43.1646 36.0413 43.1646 35.1198C43.1646 34.1496 42.6625 33.2907 41.9247 32.7692C42.6675 32.1824 43.1266 31.2746 43.1266 30.2566V24.2141L37.3095 16.6398H38.5877V12.1818H29.5907V16.6398H30.9498L25.0518 24.2141V30.2567C25.0518 31.2747 25.5502 32.1824 26.293 32.7693C25.5552 33.2909 25.0822 34.1497 25.0822 35.12C25.0822 36.0414 25.5231 36.8624 26.1989 37.3895C25.5231 37.9165 25.0898 38.7375 25.0898 39.659C25.0898 40.6292 25.5539 41.4881 26.2917 42.0096C25.5489 42.5964 25.0518 43.5042 25.0518 44.5222V49.7096C25.0518 51.475 26.5286 52.9517 28.2939 52.9517H31.536V52.8984C32.0756 53.3126 32.75 53.6002 33.4812 53.6002H34.7781C35.5094 53.6002 36.1837 53.3127 36.7234 52.8984V52.9517H39.9655C41.7308 52.9517 43.1265 51.4749 43.1265 49.7096V44.5222C43.1265 43.5042 42.6686 42.5965 41.9258 42.0096C42.6637 41.488 43.157 40.6291 43.157 39.6588ZM30.8065 15.4239V13.3976H37.3719V15.4239H30.8065ZM32.4837 16.6398H35.7755L41.3246 23.8535H26.9347L32.4837 16.6398ZM40.2898 38.0378C41.206 38.0378 41.9513 38.7831 41.9513 39.6994C41.9513 40.6156 41.206 41.3609 40.2898 41.3609H38.6687V42.5767H39.9655C41.0605 42.5767 41.9108 43.427 41.9108 44.522V49.7094C41.9108 50.8044 41.0606 51.7357 39.9655 51.7357H37.6859C37.874 51.2494 37.9797 50.835 37.9797 50.3578H36.764C36.764 51.4528 35.8732 52.3842 34.7782 52.3842H33.4812C32.3863 52.3842 31.4954 51.4529 31.4954 50.3578H30.2797C30.2797 50.8351 30.3854 51.2494 30.5735 51.7357H28.2939C27.199 51.7357 26.2675 50.8044 26.2675 49.7094V44.522C26.2675 43.427 27.1989 42.5767 28.2939 42.5767H34.7782V41.3609H27.9697C27.0535 41.3609 26.3081 40.6156 26.3081 39.6994C26.3081 38.7831 27.0535 38.0378 27.9697 38.0378H34.7782V36.822H27.9697C27.0535 36.822 26.3081 36.0766 26.3081 35.1604C26.3081 34.2442 27.0535 33.4988 27.9697 33.4988H34.7782V32.2831H28.2939C27.199 32.2831 26.2675 31.3518 26.2675 30.2567V25.0693H41.9108V30.2567C41.9108 31.3517 41.0606 32.2831 39.9655 32.2831H38.6687V33.4988H40.2898C41.206 33.4988 41.9513 34.2442 41.9513 35.1604C41.9513 36.0766 41.206 36.822 40.2898 36.822H38.6687V38.0378H40.2898Z" fill="#08665B"/>
<path d="M30.8886 21.2598H29.5918V22.4756H30.8886V21.2598Z" fill="#08665B"/>
<path d="M32.1855 19.9629H30.8887V21.1787H32.1855V19.9629Z" fill="#08665B"/>
<path d="M37.373 36.822H36.0762V38.0378H37.373V36.822Z" fill="#08665B"/>
<path d="M37.373 32.283H36.0762V33.4987H37.373V32.283Z" fill="#08665B"/>
<path d="M37.373 41.361H36.0762V42.5767H37.373V41.361Z" fill="#08665B"/>
</g>
<path d="M50.2967 16.703C45.8418 12.2481 39.7998 9.74542 33.4997 9.74542C27.1996 9.74542 21.1575 12.2481 16.7027 16.703C12.2478 21.1578 9.74512 27.1999 9.74512 33.5C9.74512 39.8001 12.2478 45.8421 16.7027 50.297C21.1575 54.7518 27.1996 57.2545 33.4997 57.2545C39.7998 57.2545 45.8418 54.7518 50.2967 50.297C54.7515 45.8421 57.2542 39.8001 57.2542 33.5C57.2542 27.1999 54.7515 21.1578 50.2967 16.703V16.703ZM49.1768 17.8228C53.2379 21.8835 55.5646 27.3617 55.667 33.1037C55.7694 38.8457 53.6395 44.4034 49.7259 48.6063L18.3933 17.2738C22.5962 13.3601 28.1539 11.2302 33.8959 11.3326C39.6379 11.435 45.1161 13.7618 49.1768 17.8228V17.8228ZM17.8225 49.1771C13.7614 45.1165 11.4347 39.6382 11.3323 33.8962C11.2299 28.1542 13.3598 22.5965 17.2735 18.3936L48.606 49.7262C44.4031 53.6398 38.8454 55.7697 33.1034 55.6673C27.3614 55.5649 21.8832 53.2382 17.8225 49.1771V49.1771Z" fill="#08665B"/>
<defs>
<clipPath id="clip0">
<rect width="41.4182" height="41.4182" fill="white" transform="translate(13.3994 12.1818)"/>
</clipPath>
</defs>
</svg>
