<svg width="68" height="67" viewBox="0 0 68 67" fill="none" xmlns="http://www.w3.org/2000/svg">
<circle cx="33.5908" cy="33.5" r="33.5" fill="#08F0D5"/>
<path fill-rule="evenodd" clip-rule="evenodd" d="M39.6997 23.1495C39.4503 23.1495 39.2071 23.0486 39.0316 22.8736C38.8549 22.6969 38.7539 22.4537 38.7539 22.2037C38.7539 21.955 38.8549 21.7118 39.0316 21.5351C39.2071 21.359 39.4503 21.2592 39.6997 21.2592C39.9484 21.2592 40.1929 21.359 40.3683 21.5351C40.5446 21.7118 40.6454 21.955 40.6454 22.2037C40.6454 22.4533 40.5446 22.6969 40.3683 22.8736C40.1916 23.0486 39.9484 23.1495 39.6997 23.1495Z" fill="#08665B"/>
<path fill-rule="evenodd" clip-rule="evenodd" d="M43.4389 27.9105C43.1889 27.9105 42.9457 27.8095 42.769 27.6334C42.5936 27.4578 42.4932 27.2146 42.4932 26.9648C42.4932 26.7159 42.5936 26.4726 42.7703 26.2966C42.9457 26.1199 43.1889 26.019 43.4389 26.019C43.687 26.019 43.9315 26.1199 44.107 26.2966C44.2837 26.4715 44.3847 26.7159 44.3847 26.9648C44.3847 27.2141 44.2837 27.4578 44.107 27.6334C43.9315 27.8095 43.687 27.9105 43.4389 27.9105Z" fill="#08665B"/>
<path fill-rule="evenodd" clip-rule="evenodd" d="M38.2124 28.8559C37.963 28.8559 37.7193 28.7549 37.5425 28.58C37.367 28.4032 37.2666 28.16 37.2666 27.9112C37.2666 27.6619 37.3676 27.4169 37.5425 27.2413C37.7193 27.0652 37.9625 26.9644 38.2124 26.9644C38.4606 26.9644 38.7056 27.0652 38.8806 27.2413C39.0573 27.4169 39.1581 27.6612 39.1581 27.9112C39.1581 28.16 39.0573 28.4032 38.8806 28.58C38.7056 28.7549 38.4606 28.8559 38.2124 28.8559Z" fill="#08665B"/>
<path fill-rule="evenodd" clip-rule="evenodd" d="M51.4471 27.2241L39.1178 14.8952C38.8943 14.6717 38.5741 14.5744 38.2644 14.6367C37.954 14.6982 37.6953 14.9107 37.5747 15.2031L32.2948 28.0036C31.022 27.5369 29.6237 27.2839 28.1736 27.2839C22.978 27.2839 18.6869 30.5375 18.1335 34.7047H17.4316C15.931 34.7047 14.71 35.9257 14.71 37.4263C14.71 38.617 15.4803 39.6293 16.5479 39.9975C18.9333 48.9603 23.2503 52.601 23.4361 52.7544C23.6062 52.8942 23.8185 52.9705 24.0378 52.9705H39.2186C39.4379 52.9705 39.651 52.8942 39.8203 52.7544C40.0062 52.601 44.3231 48.9603 46.7092 39.9975C47.7768 39.6293 48.5471 38.617 48.5471 37.4263C48.5471 35.9257 47.3261 34.7047 45.8255 34.7047H44.9782C44.3564 33.7238 43.5411 32.9055 42.5966 32.2916L51.1393 28.7671C51.4312 28.6464 51.6437 28.3879 51.7058 28.0782C51.7681 27.7678 51.6707 27.4476 51.4471 27.2241ZM28.1721 29.1751C31.3037 29.1751 34.1214 30.5475 35.5258 32.7575C35.7531 33.1139 36.1885 33.277 36.5936 33.1564C37.1477 32.992 37.7216 32.9083 38.2985 32.9083C39.9277 32.9083 41.4585 33.5709 42.5748 34.7044H20.045C20.6128 31.5832 24.0399 29.1751 28.1721 29.1751ZM38.8485 51.0786H24.4064C23.5399 50.2333 20.4742 46.8824 18.55 40.1474H44.7047C42.7805 46.8824 39.7148 50.2333 38.8485 51.0786ZM45.8245 36.5959C46.2826 36.5959 46.6544 36.9684 46.6544 37.426C46.6544 37.8834 46.2826 38.2559 45.8245 38.2559H17.4311C16.9728 38.2559 16.601 37.8834 16.601 37.426C16.601 36.9684 16.9728 36.5959 17.4311 36.5959H45.8245ZM40.1745 31.2431C39.5679 31.0942 38.9387 31.0166 38.2976 31.0166C37.7694 31.0166 37.2435 31.07 36.727 31.1747C36.0084 30.2315 35.0798 29.4323 34.0073 28.8073L38.7811 17.2345L49.1057 27.5586L40.1745 31.2431Z" fill="#08665B"/>
</svg>
