<svg width="99" height="105" viewBox="0 0 99 105" fill="none" xmlns="http://www.w3.org/2000/svg">
<path d="M54.8316 41.5813C54.8316 41.4422 54.8332 41.3015 54.8316 41.1624C54.8189 40.0982 54.7966 39.0339 54.7998 37.9713C54.7998 37.8031 54.865 37.5847 54.9794 37.4764C58.0519 34.6103 61.2658 31.9416 65.079 30.1334C66.4475 29.4848 67.8797 29.061 69.4087 29.1079C69.8284 29.1209 70.2607 29.1775 70.6597 29.3036C71.7961 29.6643 72.3064 30.5814 72.1633 31.9012C72.0536 32.9153 71.7437 33.8696 71.3415 34.7996C70.6215 36.4671 69.5407 37.8985 68.5123 39.3671C67.77 40.4281 67.0309 41.5037 66.4062 42.6391C65.3428 44.5768 65.2427 46.6341 65.9214 48.7384C66.0533 49.1459 66.1598 49.5648 66.2473 49.9854C66.3951 50.7035 66.2202 51.3246 65.7323 51.8891C64.6451 53.1442 63.3099 54.0467 61.838 54.7373C59.5158 55.8274 57.076 56.2415 54.5296 55.9051C53.9129 55.8242 53.3057 55.6156 52.6906 55.6058C51.5827 55.5864 50.4701 55.6463 49.3622 55.7207C47.6726 55.8355 45.9861 56.0539 44.2902 55.7805C42.4877 55.491 41.0079 54.7082 39.8078 53.2396C38.7286 51.9214 37.6843 50.5951 36.8419 49.1104C36.3444 48.2321 35.9581 47.3086 35.7435 46.309C35.6529 45.8836 35.6879 45.5052 35.8898 45.1412C36.4969 44.0544 37.0517 42.9303 37.7383 41.8967C39.6537 39.0161 39.7506 36.0563 38.2708 32.9832C37.8051 32.0176 37.279 31.0779 36.8737 30.0865C36.0408 28.055 36.4334 26.4991 38.1214 25.1324C38.8112 24.5743 39.5631 24.0746 40.3419 23.6573C41.5531 23.0087 42.8183 23.219 44.0438 23.6621C46.3803 24.508 48.213 26.0818 49.8104 27.9547C51.3649 29.7808 52.6254 31.7977 53.3629 34.1138C53.8604 35.6762 54.1068 37.2952 54.0718 38.9304C54.021 41.3274 53.8509 43.7195 53.7619 46.1165C53.7206 47.2309 53.6935 48.3534 53.7667 49.4646C53.8541 50.8086 54.404 51.7597 56.259 52.143C57.2285 52.3435 58.2331 52.2514 59.101 51.8195C60.8685 50.9413 62.0908 49.5665 62.14 47.4428C62.2068 44.5428 63.3544 42.0472 64.8135 39.6518C65.8896 37.884 67.3345 36.4348 68.6871 34.9031C69.21 34.3111 69.6901 33.6852 69.8999 32.891C70.0255 32.4204 69.9555 31.9804 69.7441 31.5599C69.5486 31.1717 69.1942 30.9534 68.7952 31.0359C68.1149 31.1766 67.4171 31.3286 66.7924 31.623C64.2525 32.8199 62.0351 34.5214 59.8766 36.3135C58.1091 37.7804 56.6532 39.5402 55.2115 41.3177C55.1304 41.418 55.043 41.5134 54.9588 41.6105C54.9174 41.6008 54.8745 41.591 54.8316 41.5813ZM50.8436 41.1624C50.8436 40.488 50.8547 39.8151 50.842 39.1407C50.7816 36.1404 50.0155 33.3779 48.2178 30.9485C47.4135 29.8616 46.676 28.7278 45.5808 27.8997C43.8213 26.5686 41.7661 26.7126 40.202 27.7817C39.5344 28.2378 39.323 28.8847 39.5694 29.653C39.6997 30.0606 39.846 30.4714 40.0526 30.8434C40.9777 32.5158 41.8042 34.2189 42.0983 36.1501C42.4035 38.1605 42.3446 40.1435 41.5928 42.0358C41.1907 43.0499 40.5962 43.988 40.0494 44.9375C39.6235 45.675 39.4407 46.4513 39.6886 47.26C40.1877 48.892 41.135 50.173 42.6784 50.9429C44.4062 51.8049 46.2055 51.991 48.0779 51.564C48.7137 51.4184 49.2271 51.0901 49.4687 50.4771C49.7771 49.6942 50.0791 48.8952 50.2555 48.0752C50.7403 45.7995 50.8293 43.4818 50.8436 41.1624ZM61.8476 52.6913C59.8575 53.1393 57.9279 53.5728 56.0126 54.0014C57.3144 54.7244 60.6284 54.0806 61.8476 52.6913ZM48.604 53.5113C46.5441 53.3835 44.5445 53.2606 42.5433 53.1361C43.5399 54.0725 47.1099 54.4057 48.604 53.5113Z" fill="#535353"/>
<path d="M32.3853 58.9932C32.8542 60.6073 33.2548 62.1406 33.7491 63.6432C34.2546 65.1846 34.8347 66.7033 35.4181 68.2172C35.5548 68.5698 35.5659 68.8189 35.3449 69.1375C34.2959 70.6401 33.2659 72.1572 32.2423 73.6776C32.0531 73.959 31.9435 73.9493 31.767 73.6727C30.4621 71.6267 29.4671 69.4367 28.8233 67.0866C28.6214 66.3475 28.4196 65.6083 28.2543 64.8611C28.2082 64.6492 28.2114 64.3451 28.3274 64.1899C29.5545 62.5531 30.807 60.9357 32.0563 59.3166C32.139 59.2067 32.2518 59.1226 32.3853 58.9932Z" fill="#535353"/>
<path d="M38.2805 53.5291C38.5761 54.5076 38.8606 55.4424 39.1435 56.3789C39.5934 57.8702 40.0527 59.3582 40.4835 60.8559C40.5375 61.0419 40.5073 61.3152 40.404 61.4737C39.1229 63.434 37.8227 65.3814 36.5225 67.3287C36.4621 67.4193 36.362 67.484 36.2809 67.56C36.2173 67.4662 36.1363 67.3805 36.0949 67.2786C35.1285 64.9576 34.4101 62.5525 33.752 60.1281C33.6042 59.583 33.4739 59.0347 33.3181 58.4929C33.2243 58.1661 33.2529 57.9106 33.5231 57.6648C34.8933 56.421 36.2491 55.161 37.6129 53.9091C37.7194 53.8105 37.8465 53.7328 37.9721 53.6584C38.0468 53.6115 38.1374 53.5873 38.2805 53.5291Z" fill="#535353"/>
<path d="M49.8477 63.5133C51.07 65.0595 52.2462 66.5476 53.4209 68.0372C53.769 68.4787 54.1043 68.9284 54.4604 69.3634C54.6177 69.5559 54.6018 69.6966 54.4588 69.894C53.1204 71.7491 51.7885 73.6075 50.466 75.474C50.2912 75.7198 50.1767 75.7263 49.9796 75.5144C49.1372 74.6135 48.3981 73.6415 47.802 72.5481C47.3411 71.7022 46.7959 70.9032 46.2777 70.0913C46.1601 69.9053 46.1156 69.7646 46.2475 69.5478C47.384 67.6539 48.503 65.7486 49.6299 63.8481C49.6888 63.7446 49.7587 63.6508 49.8477 63.5133Z" fill="#535353"/>
<path d="M55.2585 68.7649C55.036 68.4867 54.8452 68.2522 54.6577 68.0128C53.3257 66.3048 52 64.5936 50.6617 62.8921C50.4328 62.601 50.4185 62.3583 50.5997 62.0235C51.5057 60.3511 52.3926 58.6674 53.2669 56.9772C53.429 56.6635 53.5911 56.581 53.9456 56.6263C54.4367 56.6893 54.6879 56.9303 54.9199 57.3589C55.8227 59.0233 56.8798 60.5857 58.0782 62.0446C58.296 62.3082 58.3627 62.5314 58.2483 62.8743C57.5839 64.8766 56.6715 66.748 55.4921 68.4851C55.4413 68.5611 55.3745 68.6274 55.2585 68.7649Z" fill="#535353"/>
<path d="M49.1985 62.4956C49.1556 62.5959 49.1286 62.6864 49.0841 62.7657C47.9953 64.6581 46.9097 66.552 45.8129 68.4395C45.5618 68.8714 45.4903 68.8633 45.2344 68.4509C43.896 66.2997 42.5974 64.1259 41.8329 61.6788C41.7788 61.5057 41.7995 61.2389 41.8981 61.0965C42.866 59.7007 43.8531 58.3178 44.8449 56.9382C45.1469 56.5161 46.0816 56.618 46.3216 57.0692C47.2292 58.7869 48.1447 60.4997 49.0571 62.2142C49.1032 62.3064 49.1493 62.4002 49.1985 62.4956Z" fill="#535353"/>
<path d="M40.8244 74.6237C40.7418 74.5574 40.6702 74.517 40.6225 74.4587C39.3033 72.8284 37.9713 71.2094 37.0001 69.3219C36.7998 68.9337 36.8189 68.6684 37.0605 68.3094C38.286 66.4914 39.4813 64.6508 40.6893 62.8199C40.7672 62.7018 40.861 62.5967 41.004 62.4139C41.1725 62.8361 41.3044 63.1806 41.4459 63.5202C42.2899 65.5614 43.4232 67.4424 44.6074 69.2895C44.8188 69.6179 44.8124 69.8265 44.5645 70.1241C43.3565 71.5684 42.1691 73.029 40.9738 74.4846C40.9404 74.5251 40.8975 74.5574 40.8244 74.6237Z" fill="#535353"/>
<path d="M55.323 70.4625C55.5996 70.7876 55.8491 71.082 56.0987 71.3747C57.1827 72.646 58.2858 73.8995 59.6146 74.9168C59.8816 75.1206 59.7513 75.2808 59.6162 75.449C58.6466 76.6588 57.6739 77.8638 56.7011 79.0703C56.3578 79.4973 56.0065 79.9179 55.6711 80.3513C55.501 80.5713 55.3628 80.636 55.1291 80.416C53.8368 79.203 52.5335 78.0028 51.2317 76.8011C51.0553 76.6378 50.9599 76.4809 51.1268 76.248C52.4731 74.3685 53.8178 72.4875 55.1625 70.6081C55.1943 70.5677 55.2404 70.5385 55.323 70.4625Z" fill="#535353"/>
<path d="M27.3792 65.5677C27.5445 66.1532 27.6987 66.666 27.8354 67.1819C28.5379 69.8442 29.6696 72.3075 31.186 74.588C31.3751 74.8727 31.3783 75.0813 31.2146 75.387C30.6122 76.5224 30.0479 77.6789 29.4678 78.8256C29.4169 78.9259 29.3501 79.0164 29.2564 79.1685C29.0624 78.9 28.8955 78.6946 28.7573 78.473C27.4952 76.4529 26.2506 74.423 24.9727 72.4126C24.4593 71.6055 24.4402 70.8486 24.8042 69.9525C25.4193 68.4322 26.2475 67.0541 27.1964 65.7376C27.2234 65.6971 27.2679 65.6696 27.3792 65.5677Z" fill="#535353"/>
<path d="M63.8361 67.2745C64.4497 67.556 64.9948 67.8697 65.5798 68.059C66.5223 68.3631 67.4856 68.5976 68.4488 68.8289C68.6999 68.8887 68.8255 68.9485 68.8001 69.2348C68.6141 71.31 68.1309 73.2897 67.1073 75.1173C66.872 75.5379 66.551 75.719 66.1186 75.8209C64.7453 76.1411 63.4689 75.8063 62.2196 75.2597C61.9653 75.1481 61.7062 75.0348 61.4773 74.8796C61.3915 74.8213 61.3184 74.5998 61.3613 74.514C62.3976 72.4049 62.9253 70.1163 63.6295 67.8908C63.6899 67.6983 63.7566 67.5107 63.8361 67.2745Z" fill="#535353"/>
<path d="M23.7707 69.4211C23.5514 68.5672 23.2827 67.7229 23.1206 66.8576C22.7836 65.0606 22.5134 63.2491 22.1908 61.449C22.0874 60.8699 22.2448 60.3685 22.4546 59.851C23.2017 57.999 24.1204 56.249 25.365 54.6882C25.4556 54.5734 25.5764 54.4844 25.7512 54.3195C25.8227 55.1023 25.8545 55.7848 25.9499 56.4593C26.2964 58.9226 26.6699 61.3827 27.0148 63.8476C27.0419 64.0465 26.9751 64.2972 26.867 64.4703C26.0834 65.7318 25.2712 66.9724 24.4876 68.234C24.3064 68.5267 24.203 68.8696 24.0584 69.1866C24.0171 69.2756 23.9583 69.3564 23.9074 69.4406C23.8613 69.4341 23.8152 69.4276 23.7707 69.4211Z" fill="#535353"/>
<path d="M45.4034 70.589C45.6434 70.9448 45.8167 71.1777 45.9677 71.4268C46.4541 72.229 46.8864 73.0669 47.4236 73.8319C48.0372 74.7053 48.7222 75.5269 49.4121 76.3405C49.6282 76.596 49.6378 76.7594 49.4725 77.0343C48.735 78.2619 48.0086 79.4976 47.3013 80.7447C47.128 81.0487 47.004 81.1086 46.7481 80.8482C45.076 79.1418 43.3943 77.4468 41.7285 75.7356C41.6395 75.6434 41.5775 75.3781 41.6363 75.3021C42.8571 73.7478 44.0984 72.2112 45.4034 70.589Z" fill="#535353"/>
<path d="M36.1651 69.8385C36.1969 69.8951 36.2318 69.9533 36.262 70.0132C37.2475 71.9055 38.5858 73.5391 39.9305 75.1646C40.1626 75.4444 40.1992 75.6434 39.9909 75.9668C39.1056 77.3449 38.3888 78.8102 37.8483 80.3646C37.8054 80.4859 37.7387 80.5991 37.6576 80.7673C37.505 80.6347 37.3826 80.5392 37.2729 80.4325C35.6548 78.8377 34.1814 77.1152 32.8431 75.2697C32.7016 75.074 32.603 74.9091 32.7747 74.6616C33.8587 73.0862 34.9285 71.5028 36.0061 69.9226C36.0204 69.9048 36.0522 69.8983 36.1651 69.8385Z" fill="#535353"/>
<path d="M27.8456 62.9244C27.7582 62.4796 27.6454 62.038 27.5866 61.59C27.3259 59.5747 27.0668 57.5578 26.8379 55.5393C26.7648 54.8875 26.7759 54.2227 26.7696 53.5645C26.768 53.4367 26.8316 53.2572 26.9253 53.1844C28.0841 52.2997 29.2555 51.4295 30.5255 50.4785C30.6272 50.9863 30.6972 51.3599 30.7782 51.7303C31.1931 53.6211 31.6175 55.5102 32.0164 57.4042C32.053 57.5789 31.9862 57.8328 31.8766 57.9767C30.6717 59.5294 29.4494 61.0676 28.2319 62.6106C28.1429 62.7222 28.0554 62.8338 27.968 62.9454C27.9283 62.9405 27.887 62.9325 27.8456 62.9244Z" fill="#535353"/>
<path d="M60.3663 74.2169C60.2041 74.1021 60.0722 74.0212 59.953 73.9242C58.5034 72.7321 57.3065 71.291 56.116 69.8451C55.9713 69.6688 55.9713 69.5329 56.1033 69.3469C57.3304 67.5953 58.3142 65.7126 59.0216 63.6812C59.109 63.4305 59.2028 63.3965 59.4126 63.5841C60.5141 64.5675 61.6299 65.5363 62.7298 66.5229C62.8252 66.6087 62.9094 66.8124 62.8761 66.9224C62.1687 69.2175 61.6283 71.5725 60.6142 73.7624C60.5475 73.9031 60.4648 74.0374 60.3663 74.2169Z" fill="#535353"/>
<path d="M32.9594 56.7429C32.9054 56.6152 32.8418 56.5133 32.8211 56.4049C32.4063 54.2796 31.9946 52.1528 31.5956 50.0243C31.5734 49.9062 31.6306 49.7186 31.7164 49.6426C32.7432 48.753 33.7859 47.8812 34.8191 46.9981C35.0178 46.8283 35.1084 46.8833 35.1767 47.1178C35.617 48.6317 36.3943 49.9709 37.2764 51.2551C37.4433 51.4977 37.5784 51.7646 37.7628 51.9926C37.9742 52.2547 37.9329 52.4568 37.677 52.6283C35.9874 53.7621 34.5568 55.1983 33.1263 56.6362C33.0913 56.6718 33.0421 56.6912 32.9594 56.7429Z" fill="#535353"/>
<path d="M63.259 65.6451C62.93 65.3928 62.6598 65.2213 62.4293 65.0062C61.5169 64.149 60.6109 63.2853 59.724 62.4022C59.6127 62.2906 59.5491 62.0334 59.5873 61.8749C60.0037 60.1718 60.2882 58.4509 60.301 56.6895C60.3026 56.531 60.3359 56.2819 60.4329 56.2318C60.7206 56.0846 61.0448 56.0054 61.3611 55.9293C61.4088 55.918 61.5121 56.0636 61.5582 56.1542C62.2465 57.5289 63.2367 58.6288 64.4972 59.4747C64.7372 59.6348 64.8103 59.8176 64.7436 60.0828C64.3446 61.6566 63.9488 63.2319 63.5451 64.8056C63.4799 65.0612 63.3766 65.3054 63.259 65.6451Z" fill="#535353"/>
<path d="M68.871 64.5333C68.871 65.5021 68.8646 66.4725 68.8741 67.4414C68.8773 67.7503 68.7994 67.8797 68.4593 67.8279C67.0955 67.6225 65.8255 67.1567 64.6096 66.5033C64.2488 66.3092 64.1613 66.1119 64.2806 65.7124C64.6922 64.336 65.0737 62.9515 65.4552 61.5654C65.5521 61.216 65.6157 60.8569 65.6777 60.4995C65.7174 60.2731 65.8351 60.2504 66.0178 60.3086C66.7999 60.5545 67.5787 60.8084 68.3655 61.0332C68.6294 61.1092 68.6914 61.2645 68.6898 61.5039C68.6866 62.5132 68.6882 63.5224 68.6882 64.5317C68.7502 64.5333 68.8106 64.5333 68.871 64.5333Z" fill="#535353"/>
<path d="M21.5298 62.8688C21.5679 63.016 21.6204 63.1616 21.6395 63.3104C21.9844 65.8756 22.4962 68.4019 23.3402 70.8507C23.3927 71.0043 23.3911 71.1968 23.3561 71.3586C23.0684 72.7269 22.7696 74.092 22.4692 75.4571C22.4421 75.5784 22.3754 75.6916 22.3277 75.808C22.2212 75.7417 22.0972 75.6948 22.0114 75.6075C20.7938 74.3718 20.174 72.8676 20.0881 71.1289C20.0039 69.4177 20.29 67.7453 20.6285 66.0826C20.832 65.083 21.1022 64.0964 21.347 63.1049C21.3677 63.0225 21.4122 62.9464 21.4455 62.8672C21.4741 62.8688 21.5012 62.8688 21.5298 62.8688Z" fill="#535353"/>
<path d="M65.6364 76.9973C64.7511 78.8007 59.3278 81.1427 56.5986 80.8612C56.694 80.7108 56.7608 80.5766 56.853 80.4634C57.9688 79.0805 59.0973 77.7073 60.2036 76.3179C60.7329 75.6532 60.7154 75.637 61.4529 76.0009C62.707 76.6172 64.0072 77.0312 65.4234 76.9342C65.4759 76.9309 65.5283 76.9374 65.5792 76.9471C65.6015 76.952 65.6173 76.9795 65.6364 76.9973Z" fill="#535353"/>
<path d="M45.9783 81.6121C45.859 81.6266 45.7828 81.6476 45.7065 81.6444C43.4446 81.591 41.1844 81.5328 38.9226 81.481C38.6349 81.4746 38.5474 81.3808 38.6444 81.0848C39.1594 79.5062 39.8667 78.023 40.7314 76.6159C40.8299 76.4558 40.9253 76.3636 41.1001 76.5415C42.7039 78.1799 44.3125 79.8167 45.9179 81.4552C45.9417 81.4778 45.9449 81.5247 45.9783 81.6121Z" fill="#535353"/>
<path d="M32.0208 76.0079C33.5356 77.7661 35.0265 79.4983 36.5286 81.2419C36.5 81.2516 36.4539 81.2855 36.411 81.2823C34.3733 81.0575 32.3435 80.789 30.363 80.2197C30.088 80.1404 30.0086 80.0159 30.1341 79.7587C30.7143 78.5683 31.2944 77.3763 31.8794 76.1875C31.9128 76.1163 31.9763 76.0613 32.0208 76.0079Z" fill="#535353"/>
<path d="M68.5379 60.0194C67.6478 59.9046 66.8546 59.6231 66.0996 59.2334C66.0011 59.1832 65.9311 58.9665 65.9375 58.8322C65.9979 57.6629 66.1171 56.4967 66.1377 55.3273C66.1489 54.7305 66.0217 54.1256 65.9105 53.532C65.8516 53.2182 65.8946 52.995 66.125 52.7767C66.3078 52.6052 66.4541 52.3901 66.6035 52.1863C66.7783 51.9486 66.9341 51.9874 67.0533 52.2203C67.2361 52.5777 67.4459 52.9319 67.5572 53.3137C68.1659 55.4163 68.4775 57.569 68.5633 59.7574C68.5681 59.8205 68.5522 59.8852 68.5379 60.0194Z" fill="#535353"/>
<path d="M54.4138 81.1703C54.0609 81.2156 53.7812 81.2673 53.4982 81.2851C51.807 81.3919 50.1142 81.4922 48.423 81.5908C48.0241 81.6135 47.978 81.5471 48.1783 81.1962C48.8522 80.0219 49.5389 78.8558 50.2144 77.6848C50.3288 77.4858 50.4258 77.3969 50.6356 77.5926C51.8325 78.7151 53.0373 79.8278 54.2389 80.9471C54.2835 80.9875 54.3152 81.0441 54.4138 81.1703Z" fill="#535353"/>
<path d="M52.4152 56.506C51.56 58.1282 50.7049 59.7489 49.8497 61.3711C49.7925 61.3776 49.7353 61.3841 49.6797 61.3905C48.8706 59.8686 48.0632 58.3482 47.1953 56.713C48.9898 56.582 50.6493 56.3216 52.3293 56.3798C52.3579 56.4219 52.3866 56.4639 52.4152 56.506Z" fill="#535353"/>
<path d="M28.0386 79.2621C27.8907 79.2298 27.7827 79.2314 27.7 79.1861C26.3283 78.4389 24.9597 77.6852 23.588 76.9379C23.294 76.7778 23.2463 76.5643 23.3194 76.236C23.5324 75.2801 23.7041 74.3129 23.8996 73.3521C23.9345 73.1775 23.9981 73.0076 24.0617 72.7909C25.4016 74.9712 26.7034 77.09 28.0386 79.2621Z" fill="#535353"/>
<path d="M60.6813 49.8204C60.4683 49.9789 60.249 50.1293 60.0439 50.2991C59.0155 51.1482 57.8632 51.5882 56.5216 51.42C55.1658 51.2501 54.3711 50.291 54.4331 48.9033C54.4474 48.5863 54.6047 48.651 54.805 48.7027C55.8795 48.9777 56.9476 49.2915 58.0364 49.492C58.7326 49.6214 59.4574 49.5794 60.1695 49.6117C60.2951 49.6182 60.4206 49.6133 60.5462 49.6133C60.5907 49.6829 60.6352 49.7508 60.6813 49.8204Z" fill="#535353"/>
<path d="M41.2774 60.135C40.6957 58.1683 40.1505 56.3212 39.5703 54.3577C39.7436 54.4579 39.8135 54.4806 39.8596 54.5275C40.8594 55.5368 42.088 56.0964 43.4359 56.4231C43.8444 56.5218 43.873 56.5735 43.6362 56.9083C42.948 57.8804 42.2565 58.8508 41.5651 59.8196C41.5063 59.9005 41.43 59.9684 41.2774 60.135Z" fill="#535353"/>
<path d="M58.5496 61.1106C57.6293 59.7439 56.709 58.3788 55.7188 56.9102C55.9858 56.8795 56.1066 56.8633 56.2274 56.852C57.0936 56.7646 57.9615 56.6902 58.8278 56.5883C59.2935 56.5333 59.3602 56.5463 59.3062 57.0299C59.1679 58.2704 58.9947 59.5077 58.8278 60.7451C58.8119 60.8567 58.7467 60.9634 58.7038 61.0718C58.6513 61.0847 58.6005 61.0977 58.5496 61.1106Z" fill="#535353"/>
<path d="M64.9151 58.558C63.8152 57.7639 63.0045 56.8468 62.4482 55.7082C62.4085 55.6273 62.4975 55.4074 62.5865 55.3491C63.297 54.8898 64.0186 54.4466 64.745 54.0132C65.0486 53.832 65.0375 54.107 65.0391 54.2784C65.055 55.3119 65.0629 56.3454 65.0661 57.379C65.0677 57.607 65.0486 57.8367 65.0248 58.0631C65.0105 58.2022 64.966 58.3381 64.9151 58.558Z" fill="#535353"/>
<path d="M49.8068 43.8893C49.8068 44.2468 49.8259 44.4813 49.8036 44.7126C49.6542 46.296 49.4508 47.8665 48.9374 49.382C48.6576 50.2053 48.184 50.6242 47.2716 50.7067C46.1303 50.8102 45.0273 50.7779 43.9416 50.4269C42.2886 49.8948 41.1934 48.769 40.6085 47.1177C40.564 46.9915 40.5179 46.8524 40.529 46.7246C40.5513 46.4529 40.6101 46.1844 40.653 45.9143C40.8469 46.0098 41.052 46.0874 41.2332 46.2055C42.1265 46.7845 43.0865 47.1905 44.1356 47.3376C45.7282 47.5625 47.0936 47.0449 48.2142 45.8982C48.6958 45.4048 49.0915 44.8258 49.5239 44.2824C49.6002 44.1869 49.6685 44.0818 49.8068 43.8893Z" fill="#535353"/>
<path d="M47.2382 104.323C30.3742 104.286 14.7995 95.1401 6.33374 80.2989C5.94894 79.5724 6.2187 78.6682 6.9288 78.2808C7.61114 77.9054 8.46009 78.1395 8.8687 78.8095C16.8108 92.7305 31.4215 101.308 47.2382 101.34C58.9926 101.372 70.271 96.6174 78.5582 88.1373C79.1414 87.5641 80.0657 87.5803 80.629 88.1736C81.1765 88.7508 81.1765 89.667 80.629 90.2442C71.7904 99.2894 59.7702 104.355 47.2382 104.323Z" fill="#08F0D5"/>
<path d="M2.81545 68.9929C2.14105 68.9929 1.55789 68.5247 1.39524 67.8587C-4.8767 42.0711 10.5869 15.997 35.9326 9.61574C39.6338 8.68337 43.4303 8.21113 47.2387 8.20709C48.048 8.20709 48.7026 8.87307 48.7026 9.69646C48.7026 10.5199 48.048 11.1858 47.2387 11.1858C22.75 11.2141 2.91463 31.4276 2.93446 56.3433C2.93843 59.984 3.37481 63.6125 4.23566 67.1483C4.43005 67.9475 3.95003 68.7547 3.16455 68.9525C3.04951 68.9807 2.9305 68.9929 2.81545 68.9929Z" fill="#08F0D5"/>
<path d="M39.1494 19.4244C38.3401 19.4244 37.6855 18.7584 37.6855 17.935C37.6855 17.5395 37.8403 17.1601 38.114 16.8816L45.1674 9.70514L38.11 2.52467C37.5467 1.93134 37.5626 0.98686 38.1457 0.417751C38.713 -0.13925 39.6135 -0.13925 40.1808 0.417751L48.2697 8.64764C48.841 9.22886 48.841 10.1733 48.2697 10.7546L40.1808 18.9845C39.9071 19.267 39.5382 19.4244 39.1494 19.4244Z" fill="#08F0D5"/>
<path d="M4.64068 92.2856C4.51373 92.2856 4.38282 92.2695 4.25984 92.2331C3.47833 92.0192 3.01418 91.2039 3.22443 90.4088L6.18387 79.1638C6.39412 78.3686 7.19547 77.8964 7.97699 78.1103L19.0292 81.1214C19.8108 81.3393 20.2709 82.1587 20.0567 82.9498C19.8465 83.7369 19.0491 84.2051 18.2715 83.9992L8.63949 81.3716L6.05692 91.1756C5.88634 91.8295 5.30318 92.2856 4.64068 92.2856Z" fill="#08F0D5"/>
<path d="M55.9854 10.7264C56.3028 10.121 56.9811 9.81423 57.6357 9.97972C82.9615 16.4377 98.3458 42.5643 91.9945 68.3316C91.0662 72.0934 89.6976 75.726 87.9124 79.1528C87.5316 79.8793 86.6469 80.1578 85.9328 79.7703C85.2188 79.3829 84.945 78.4828 85.3259 77.7563C96.7947 55.7426 88.5471 28.4374 66.9107 16.7687C63.749 15.0654 60.3928 13.7536 56.9216 12.8697C56.1362 12.6679 55.6601 11.8566 55.8585 11.0614C55.8902 10.9444 55.9299 10.8314 55.9854 10.7264Z" fill="#08F0D5"/>
<path d="M81.9748 66.6273C82.3557 65.9007 83.2403 65.6222 83.9544 66.0097C84.2956 66.1954 84.5534 66.5102 84.6685 66.8896L87.5882 76.5968L97.129 73.6221C97.9066 73.396 98.7198 73.8521 98.942 74.6432C99.1602 75.4142 98.7397 76.2254 97.9859 76.4716L87.0447 79.8823C86.2712 80.1244 85.454 79.6805 85.2159 78.8934L81.8638 67.7614C81.7566 67.382 81.7923 66.9744 81.9748 66.6273Z" fill="#08F0D5"/>
</svg>
