<?xml version="1.0" encoding="UTF-8"?>
<svg width="648px" height="732px" viewBox="0 0 648 732" version="1.1" xmlns="http://www.w3.org/2000/svg" xmlns:xlink="http://www.w3.org/1999/xlink">
    <!-- Generator: Sketch 62 (91390) - https://sketch.com -->
    <title>Wylder_logo_bigicon@3x</title>
    <desc>Created with Sketch.</desc>
    <g id="Page-1" stroke="none" stroke-width="1" fill="none" fill-rule="evenodd">
        <g id="Wylder_logo_bigicon" transform="translate(-42.000000, -34.000000)">
            <g id="Logo_cobbler_Sans" transform="translate(73.000000, 521.000000)" fill="#535353">
                <path d="M539.625673,58.7066969 C536.487964,59.8571781 533.852288,62.2220563 532.346187,65.4178376 L530.840086,68.4857876 L530.651824,118.915216 C530.463561,176.375364 530.275299,174.202232 535.23288,178.612602 C538.935377,181.936215 542.198595,182.767118 549.791853,182.44754 C558.200914,182.064046 561.715149,180.146577 564.790105,174.266148 C565.91968,172.220848 565.982434,169.600307 566.35896,139.75171 C566.798239,104.789863 567.049256,102.361069 570.437982,96.4808316 C573.512938,91.0480034 579.223569,90.3449316 584.996955,94.5633629 C592.213687,99.8044442 597.673302,101.146672 604.199738,99.2292035 C617.127102,95.394266 621.457141,74.8773502 611.604733,64.139525 C607.337448,59.5376 599.116648,57.5562156 591.20962,59.2180219 C586.063776,60.3045875 578.533273,64.3312719 574.140479,68.3579563 C565.794172,75.9000002 564.41358,75.9000002 561.903412,67.8466313 C559.832523,61.1994063 554.749434,57.9397094 546.528635,58.0027032 C543.76745,58.0027032 540.692495,58.3232031 539.625673,58.7066969 Z" id="Fill-5"></path>
                <path d="M479.368004,2.08491855 C475.258758,2.85005822 473.488622,3.67895953 470.959856,5.84685527 C466.471295,9.86383856 466.471295,9.99136184 466.09198,40.9795186 C465.902323,56.2185504 465.523008,69.0984016 465.270131,69.4809714 C464.195406,71.2025357 461.350543,70.3098727 456.609106,66.6754593 C447.695205,59.9167255 441.120413,57.8763531 430.05706,58.3864462 C420.194871,58.8327776 413.999393,61.1281967 405.591245,67.3130757 C383.654197,83.699817 376.952966,126.547639 391.872688,155.814231 C398.637138,169.076652 410.079805,178.130996 424.240897,181.574125 C429.740964,182.913119 442.384796,182.594311 447.189452,181.064032 C452.246985,179.406229 457.999928,176.154194 461.287324,172.966112 C467.229925,167.355088 469.000062,167.291326 471.149513,172.583542 C472.666773,176.473002 476.080607,180.107607 479.494442,181.574125 C482.276085,182.721834 489.230193,182.849358 492.707246,181.76541 C496.310738,180.745224 499.91423,177.302095 501.305052,173.731252 C502.379778,170.861978 502.442997,166.781233 502.442997,92.3076383 C502.442997,17.8340435 502.379778,13.7532986 501.305052,10.8840248 C499.91423,7.37713462 496.310738,3.87024445 492.833685,2.85005822 C489.41985,1.82987199 482.6554,1.44730215 479.368004,2.08491855 Z M447.463964,86.5805188 C458.659706,88.4336406 466.802063,96.6768376 470.237121,109.584789 C471.891037,115.974865 471.763813,128.37161 469.982672,134.186579 C466.547615,145.177508 458.914154,152.589995 448.736207,154.69872 C437.540465,157.063048 427.235293,151.823186 422.14632,141.343463 C418.965711,134.825586 418.011529,130.096931 418.011529,120.767421 C418.011529,108.115072 420.810464,99.6162722 426.980845,93.3539985 C430.606738,89.7116556 433.850959,87.9224346 438.621872,86.8361218 C443.074724,85.8137098 442.693051,85.8137098 447.463964,86.5805188 Z" id="Fill-1"></path>
                <path d="M332.902717,2.94992602 C328.90465,4.35580698 323.573894,7.70202697 323.573894,12.9189001 C323.573894,16.3968155 323.573894,42.7038305 323.573894,91.8399449 C323.573894,176.895743 323.446971,173.381041 326.873886,177.534972 C329.793109,180.98577 332.966179,182.136037 340.200777,182.455555 C348.006527,182.775073 351.81421,181.752614 355.177663,178.301816 C360.000729,173.444944 359.746883,178.685238 359.746883,92.7985001 C359.746883,29.2782422 359.61996,15.538951 358.858424,12.6632854 C357.716119,7.99831674 353.400745,3.58896282 349.148832,2.50260026 C344.706535,1.35233402 336.837323,1.60794874 332.902717,2.94992602 Z" id="Fill-2"></path>
                <path d="M196.601052,62.3961306 C193.796765,63.0324778 189.746127,65.1324237 188.437459,66.659657 C184.823044,70.8595487 183.950599,77.223021 185.944759,84.095571 C186.754887,86.6409599 192.17651,100.067886 198.096672,113.940256 C204.016835,127.812625 211.931158,146.266695 215.607891,154.921017 C220.157068,165.611651 223.522214,172.484201 225.952596,176.238649 C228.196026,179.61129 229.629329,182.475043 229.629329,183.556833 C229.629329,185.593144 226.762724,191.702078 223.210626,196.98376 C219.346941,202.774519 213.800683,208.056201 205.325503,213.910596 C193.17359,222.374014 191.366382,224.728499 191.304065,232.173761 C191.304065,236.310018 191.491017,236.946365 193.235907,239.109946 C195.66629,242.164413 198.595212,243.755281 203.64293,244.518897 C215.670208,246.427939 230.377139,237.13727 242.404417,219.89226 C247.514452,212.637901 250.692645,206.401699 257.235983,191.002096 C260.164905,184.19318 264.838718,173.311452 267.643006,166.82071 C270.447293,160.329969 274.934154,149.893874 277.613806,143.594037 C280.293459,137.294199 286.275939,123.358195 290.887434,112.731196 C303.101665,84.4773793 303.413253,83.5228585 303.47557,77.4139251 C303.47557,72.9594946 303.2263,71.941339 301.73068,69.3323154 C295.99747,59.3416639 278.361616,59.6598375 272.067549,69.8413931 C270.011071,73.086764 268.951673,76.0139612 255.740363,114.958411 C250.256422,131.057996 245.894197,142.83042 245.208705,143.594037 C244.08699,144.739462 243.900037,144.739462 242.965275,143.848575 C242.466735,143.275863 237.855239,130.548918 232.807522,115.531124 C221.091831,80.8502001 219.222306,75.5048835 217.477416,71.941339 C215.794843,68.5686987 211.931158,64.8142501 208.690648,63.4142862 C206.010995,62.2688612 199.592292,61.6961487 196.601052,62.3961306 Z" id="Fill-4"></path>
                <path d="M10.5363365,58.6899328 C4.13927507,60.5165473 0,66.1223641 0,73.0509017 C0,77.7749046 1.50519093,83.254748 7.83953612,101.331932 C10.849918,109.835138 17.0588306,127.786349 21.699836,141.32849 C26.3408414,154.807645 30.9818467,167.656933 31.9225911,169.735495 C34.1803775,174.648458 37.6297734,178.427849 41.6436159,180.569397 C44.4658489,182.081078 45.5320258,182.270038 51.1137755,182.270038 C56.7582415,182.270038 57.7617021,182.081078 61.0229492,180.443424 C68.1098898,176.979155 68.6116201,175.782218 79.3361055,137.234355 C82.6600688,125.266881 85.733167,114.874074 86.2976136,114.118234 C87.4892231,112.228632 89.3707118,112.291619 90.6250375,114.118234 C91.1267679,114.937061 93.9490009,124.196107 96.8339501,134.777873 C99.7188994,145.296653 103.042863,157.20114 104.10904,161.169303 C105.237933,165.137465 106.931273,170.176402 107.934733,172.31795 C111.446845,179.813556 117.404893,182.962892 126.937769,182.458998 C133.021249,182.144065 137.536822,180.002517 140.798069,175.971367 C144.561046,171.373149 144.247465,172.066003 163.501365,116.448742 C176.044623,80.2943728 176.859935,77.5859445 176.859935,73.0509017 C176.859935,69.4606594 175.292028,64.9886034 173.22239,62.721082 C171.466334,60.7684941 166.511747,58.5639594 162.874202,58.1230525 C155.661829,57.2412386 148.637605,61.2723877 145.376358,68.0119652 C144.49833,69.9015664 141.237083,80.1683994 138.101268,90.939126 C126.436039,130.683737 125.432578,133.581126 123.425657,133.959046 C121.606884,134.336966 120.16441,130.872697 117.028595,118.842237 C110.380669,93.080674 103.356444,67.6970317 102.4157,65.8074305 C99.7188994,60.3905739 95.7677732,58.2490259 88.4299674,58.2490259 C82.3464874,58.2490259 79.1479567,59.50876 76.2002911,62.9730288 C73.8797884,65.8074305 74.0679373,65.3035369 67.1064292,91.2540596 C56.2565112,131.754511 55.5039157,134.085019 53.6224271,134.085019 C53.1206967,134.085019 52.2426687,133.392166 51.7409384,132.573338 C51.1764918,131.754511 46.660919,117.456529 41.7063322,100.828039 C36.7517453,84.1995485 32.1107399,69.4606594 31.4208608,68.0119652 C29.4766558,64.2957496 26.6544228,61.2723877 23.6440409,59.8236935 C20.194645,58.1230525 14.2993139,57.6191588 10.5363365,58.6899328 Z" id="Fill-3"></path>
            </g>
            <g id="Logomark">
                <g id="Leaf" transform="translate(319.446004, 96.514286)">
                    <path d="M160.850781,52.5245181 C159.030615,75.1741692 113.501402,88.5928059 133.6437,46.0529877 C103.622793,35.4295407 98.2688292,35.3247326 67.7113497,26.3017889 C62.4615881,48.168391 55.0617783,87.9857401 55.8214695,121.289424 C56.1747758,136.777827 58.6946117,160.808975 58.9108791,161.830603 C63.1714198,184.806119 66.3424953,220.216636 78.7729166,261.580399 C85.0066968,282.324074 96.052209,304.207257 105.743212,327.488794 C106.83516,330.112075 124.362869,317.266387 134.096834,313.649165 C151.570624,307.15576 174.857653,304.138505 190.786285,305.830693 C221.394742,309.041106 248.558081,318.242575 331.586634,385.427736 C377.222507,323.515589 390.204311,280.196182 372.21583,212.201946 C348.972379,124.348093 167.648197,55.2122485 160.850781,52.5245181 Z" id="leaf_base_color" fill="#27F6DD" transform="translate(217.889490, 205.864718) rotate(74.000000) translate(-217.889490, -205.864718) "></path>
                    <path d="M350.928272,0 C355.379877,49.967476 355.379877,77.0975335 350.928272,81.3901725 C344.250865,87.829131 325.391076,73.6174808 325.391076,89.9836132 C325.391076,106.349746 351.077885,93.4253354 350.928272,97.5563554 C349.915782,125.512564 347.506474,158.089194 344.223198,183.905606 C338.143716,231.708599 326.145563,271.009967 308.228738,301.809709 C297.762377,316.916713 289.535689,327.504459 283.548674,333.572948 C263.56552,353.828042 242.665385,366.897093 229.505359,373.292982 C209.457306,383.036512 188.24553,387.908277 165.87003,387.908277 C139.24352,387.908277 126.597005,387.020561 112.140138,384.614549 C82.3668856,379.659478 67.7782904,371.180144 67.7782904,371.180144 C67.7782904,371.180144 83.5552323,334.548863 88.5432984,319.787865 C88.9214481,318.668821 89.2988165,317.572567 89.6750943,316.497648 C105.576138,306.665104 115.579449,299.618436 119.685413,295.358059 C119.685413,295.358059 115.189865,288.316786 106.198769,274.234241 L106.198769,274.234241 L104.707615,277.951779 C100.613745,289.269777 95.2647653,300.529549 89.6750943,316.497648 L89.1020401,316.85231 L89.1020401,316.85231 L104.707615,277.951779 C107.680862,269.731878 109.992082,261.481264 111.25267,251.37396 C111.183801,251.197751 111.115282,251.021518 111.046711,250.844466 C110.883512,250.423078 111.244499,248.843411 111.385906,247.280698 C111.898258,241.618596 112.773801,227.957045 110.568263,211.41612 C109.616468,204.277919 107.651002,196.820627 105.413255,190.103793 L105.094639,189.223036 C102.65362,182.558371 99.5824637,175.807256 95.8740747,168.690705 C92.5540869,162.319511 89.051478,154.376748 85.3000152,149.727465 C85.2378627,149.650438 85.1737155,149.571947 85.1076328,149.492026 C86.9709241,134.92702 88.5970883,123.711996 89.9854433,115.845767 C86.0704906,120.332757 80.1525894,126.953209 72.2317398,135.707122 L72.2317398,135.707122 L76.2108139,140.054667 C79.8329848,143.838573 83.2418161,147.235475 85.1076328,149.492026 L85.0756423,149.735603 L85.0756423,149.735603 L76.2108139,140.054667 C68.2410877,131.729084 59.2385513,121.529961 63.3666498,117.481833 C93.7038827,87.7323031 122.662064,66.3878071 185.633592,39.5834759 C240.487724,16.2343785 295.585951,3.03988653 350.928272,0 Z M284.505509,310.059733 C232.123344,333.837683 178.512267,333.837681 123.672278,310.059728 L123.672278,310.059728 L83.2263366,334.52698 L74.601096,355.851312 C100.452606,367.597611 129.309858,372.750951 161.172852,371.311333 C187.27575,370.131966 214.604362,360.76046 234.810868,348.973912 C251.942299,338.981069 274.844214,320.74704 284.505509,310.059733 Z M310.187685,250.459446 C235.327827,295.644159 176.078838,261.249836 169.984966,260.314825 C169.984966,260.314825 145.98976,289.527909 135.135017,299.65462 C135.135017,299.65462 211.242812,337.914768 290.547399,290.806962 C293.027896,286.975715 308.058479,261.188365 310.187685,250.459446 Z M131.186602,86.5749167 C119.367153,95.0845044 113.754834,97.7269713 104.455698,107.004106 C102.599189,120.646144 97.3388436,141.87921 96.1551642,166.874875 C96.1270514,167.468531 95.9541382,168.366351 96.1188859,168.623626 C98.2264685,171.914895 102.115524,180.205301 105.413255,190.103793 L105.4236,190.131344 C109.432631,201.327852 111.660225,212.315706 112.140138,224.422066 C112.559452,234.999735 112.207362,243.719311 111.25267,251.37396 C120.597789,275.317549 128.93845,284.047744 129.59523,284.712218 L129.59523,284.712218 L129.636826,284.753788 L159.356268,252.543535 C159.356268,252.543535 98.2081924,200.83542 131.186602,86.5749167 Z M324.510564,202.003382 C288.679916,222.247447 248.120368,223.778023 202.831918,206.595112 L202.831918,206.595112 L178.624263,248.689508 C205.94965,261.652287 258.740082,272.097184 316.419903,235.7621 C319.556983,224.904893 322.37774,212.713165 324.510564,202.003382 Z M181.222909,58.9870536 C169.130663,65.0487214 154.111653,71.0136044 144.085972,77.9582794 C139.58115,100.068647 133.166263,138.961868 134.618233,160.275092 C138.370143,215.348721 165.2679,240.440202 165.2679,240.440202 L165.2679,240.440202 L189.772701,197.61852 C189.772701,197.61852 156.394008,128.733973 181.222909,58.9870536 Z M332.039875,135.560023 C327.270335,139.616719 310.812031,157.329171 286.487056,159.957215 C262.162082,162.585258 242.358867,157.017836 230.39574,148.655774 L230.39574,148.655774 L209.048362,193.989632 C209.048362,193.989632 276.634694,223.617939 326.634226,184.001927 C329.604503,165.167516 331.076684,148.584867 332.039875,135.560023 Z M230.049194,42.416867 C219.244631,45.7663839 206.631839,50.6510351 197.023183,54.5133198 C179.612075,93.4181416 187.419113,155.610668 199.485007,181.101227 L199.485007,181.101227 L222.97766,135.55664 C221.414971,136.200965 198.555955,86.0378581 230.049194,42.416867 Z M336.169598,23.6463214 C306.381484,39.0132635 269.282357,81.6226175 237.212978,136.323034 C237.212978,136.323034 252.650951,150.562684 281.634546,147.881849 C310.618142,145.201013 333.257916,123.740027 333.257916,123.740027 L333.257916,123.740027 L333.257914,111.543895 C333.257914,111.543895 309.162613,110.952261 309.162609,92.7231431 C309.162607,82.9280811 312.000083,71.5624242 336.169609,72.7345444 L336.169609,72.7345444 Z M317.157273,21.1185088 C286.886688,24.9020625 270.912698,31.6151045 246.677455,38.0787093 C213.149255,70.7825368 229.90736,121.894631 229.90736,121.894631 C229.90736,121.894631 267.065134,52.6306297 317.157273,21.1185088 Z" id="Combined-Shape" fill="#535353"></path>
                </g>
                <g id="Radish" transform="translate(1.765153, 0.000000)">
                    <g id="Radish_base_color" transform="translate(37.331278, 36.134406)">
                        <path d="M44.1924971,195.992873 C48.958015,165.999732 70.2547139,150.585061 100.559149,150.61229 C121.077919,150.630727 137.696521,134.440546 137.678591,114.453602 C137.66063,94.4644596 121.012932,78.2476843 100.494163,78.2292163 C54.1611309,78.1876157 26.1499434,119.871193 26.2167947,194.464874 L26.2262236,204.833562 L43.4402438,204.849029 L44.1924971,195.992873 Z" id="Fill-2" fill="#6CF5C5" transform="translate(81.947693, 141.539123) scale(-1, 1) rotate(33.000000) translate(-81.947693, -141.539123) "></path>
                        <path d="M222.083094,140.147264 C217.263411,109.821771 195.939934,94.2022388 165.634308,94.1750082 C145.116625,94.1565724 128.467605,77.7616106 128.449452,57.5589623 C128.431327,37.3540928 145.049809,20.9923546 165.56862,21.0107759 C211.90062,21.0524222 239.98829,63.2365359 240.055984,138.635249 L240.065394,149.115838 L222.851338,149.100371 L222.083094,140.147264 Z" id="Fill-3" fill="#46C79C" transform="translate(184.257423, 85.063307) scale(-1, 1) rotate(33.000000) translate(-184.257423, -85.063307) "></path>
                        <path d="M397.915034,281.855958 C397.846133,205.160376 326.844361,144.42228 250.090921,144.353257 C173.332889,144.284344 111.167984,206.402912 111.236784,283.097346 C111.271282,321.457757 126.868549,356.197575 152.056117,381.351327 C183.778197,413.049286 251.742075,444.305629 258.984066,459.18573 C258.966874,440.036502 320.008012,416.986302 351.673224,385.344151 C376.814519,360.236769 397.949432,320.216368 397.915034,281.855958 Z" id="Fill-4" fill="#FF6376" transform="translate(254.575909, 301.769494) scale(-1, 1) rotate(33.000000) translate(-254.575909, -301.769494) "></path>
                    </g>
                    <path d="M324.520617,471.135881 C338.527202,460.253394 352.86203,448.55121 365.319859,436.087496 C394.37502,407.033712 410.375376,368.395481 410.375376,327.290499 C410.375376,252.946957 357.392366,190.755954 287.225773,176.525335 C295.347491,150.615497 317.296149,144.836692 335.218502,144.836692 C362.102629,144.836692 383.975026,122.950676 383.975026,96.0488917 C383.977409,69.1494916 362.105012,47.2634759 335.219694,47.2634759 C307.600371,47.2634759 284.885536,60.1206309 269.5322,84.445977 C264.325054,92.6974949 260.037797,102.151987 256.638257,112.717649 C253.237526,102.153179 248.951461,92.6974949 243.744315,84.445977 C228.393362,60.1206309 205.678527,47.2634759 178.058012,47.2634759 C151.172694,47.2634759 129.300297,69.1494916 129.300297,96.0512762 C129.300297,122.953061 151.172694,144.839076 178.058012,144.839076 C195.982749,144.839076 217.926641,150.615497 226.050742,176.527719 C155.882957,190.758339 102.901138,252.949341 102.901138,327.292883 C102.901138,368.396673 118.901495,407.034904 147.955464,436.087496 C160.413294,448.552403 174.820526,460.034901 188.755898,471.138265 C205.573669,484.539083 256.638257,515.004514 256.638257,515.004514 C288.821476,495.914873 311.44893,481.291995 324.520617,471.135881 Z M333.895779,66.3115376 C350.310325,66.3115376 363.662126,79.7024132 363.662126,96.1620559 C363.662126,112.621699 350.310325,126.012574 333.895779,126.012574 C299.631921,126.012574 275.149048,143.86548 266.829069,174.251777 C266.19219,174.202744 265.55054,174.168062 264.911275,174.1274 C266.939986,105.46762 291.815244,66.3115376 333.895779,66.3115376 Z M177.633836,127.094994 C161.219092,127.094994 147.865937,113.702922 147.865937,97.2444753 C147.865937,80.7860285 161.220285,67.393957 177.633836,67.393957 C219.713687,67.393957 244.590438,106.55004 246.616787,175.209819 C245.977515,175.249285 245.335858,175.285163 244.697778,175.334197 C236.381277,144.9479 211.896915,127.094994 177.633836,127.094994 Z M257.410899,500.363621 C251.573608,486.457844 222.793301,472.360616 201.402211,455.353567 C187.887472,444.608519 173.914183,433.497215 162.215781,421.819882 C136.766815,396.424656 122.750649,362.654333 122.750649,326.73167 C122.750649,252.597255 183.159041,192.284187 257.410899,192.284187 C331.662757,192.284187 392.071149,252.596066 392.071149,326.73167 C392.071149,362.655522 378.056173,396.424656 352.603634,421.822261 C340.909997,433.497215 326.935516,444.608519 313.419587,455.353567 C292.027305,472.360616 263.245807,486.457844 257.410899,500.363621 Z" fill="#535353" transform="translate(256.638257, 281.133995) scale(-1, 1) rotate(33.000000) translate(-256.638257, -281.133995) "></path>
                </g>
            </g>
        </g>
    </g>
</svg>